<svg width="22" height="22" viewBox="0 0 22 22" fill="none" xmlns="http://www.w3.org/2000/svg">
<g clip-path="url(#clip0_350_5583)">
<path d="M14.9795 2.94469C14.8305 1.84646 13.8891 1 12.75 1H9.25C8.11091 1 7.16953 1.84646 7.02054 2.94469L7.006 3.08L7.01379 2.99944L5.25 3C4.00736 3 3 4.00736 3 5.25V18.75C3 19.9926 4.00736 21 5.25 21H10.0014C9.9942 20.8075 10.0139 20.6088 10.0642 20.4075L10.5219 18.5768C10.6176 18.1939 10.7738 17.8306 10.983 17.5H7C6.58579 17.5 6.25 17.1642 6.25 16.75C6.25 16.3358 6.58579 16 7 16H12.356L17.3937 10.9624C17.8517 10.5043 18.4113 10.2098 19 10.0788V5.25C19 4.00736 17.9926 3 16.75 3L14.9862 2.99944L14.993 3.08L14.9795 2.94469ZM9.25 2.5H12.75C13.1642 2.5 13.5 2.83579 13.5 3.25C13.5 3.66421 13.1642 4 12.75 4H9.25C8.83579 4 8.5 3.66421 8.5 3.25C8.5 2.83579 8.83579 2.5 9.25 2.5ZM7 12H11C11.4142 12 11.75 12.3358 11.75 12.75C11.75 13.1642 11.4142 13.5 11 13.5H7C6.58579 13.5 6.25 13.1642 6.25 12.75C6.25 12.3358 6.58579 12 7 12ZM7 8H15C15.4142 8 15.75 8.33579 15.75 8.75C15.75 9.1642 15.4142 9.5 15 9.5H7C6.58579 9.5 6.25 9.1642 6.25 8.75C6.25 8.33579 6.58579 8 7 8ZM18.0999 11.6695L12.1974 17.5719C11.8533 17.916 11.6092 18.3472 11.4911 18.8194L11.0334 20.6501C10.8344 21.4462 11.5556 22.1674 12.3517 21.9683L14.1824 21.5106C14.6545 21.3926 15.0857 21.1485 15.4299 20.8043L21.3323 14.9019C22.2249 14.0093 22.2249 12.5621 21.3323 11.6695C20.4397 10.7768 18.9925 10.7768 18.0999 11.6695Z" fill="#615DEF"/>
</g>
<defs>
<clipPath id="clip0_350_5583">
<rect width="22" height="22" fill="white"/>
</clipPath>
</defs>
</svg>
