<svg width="34" height="34" viewBox="0 0 34 34" fill="none" xmlns="http://www.w3.org/2000/svg">
<rect width="34" height="34" rx="5" fill="#F0EFFD"/>
<g clip-path="url(#clip0_350_3809)">
<path d="M11.8247 10.475C11.0792 10.475 10.4748 11.0794 10.4748 11.825V22.175C10.4748 22.9205 11.0792 23.525 11.8247 23.525H22.1744C22.92 23.525 23.5244 22.9205 23.5244 22.175V18.575C23.5244 18.0779 23.9274 17.675 24.4244 17.675C24.9214 17.675 25.3244 18.0779 25.3244 18.575V22.175C25.3244 23.9147 23.9141 25.325 22.1744 25.325H11.8247C10.0851 25.325 8.6748 23.9147 8.6748 22.175V11.825C8.6748 10.0853 10.0851 8.67499 11.8247 8.67499H15.4246C15.9217 8.67499 16.3246 9.07794 16.3246 9.57499C16.3246 10.072 15.9217 10.475 15.4246 10.475H11.8247ZM17.6746 9.57499C17.6746 9.07794 18.0776 8.67499 18.5745 8.67499H24.4248C24.9219 8.67499 25.3248 9.07794 25.3248 9.57499V15.425C25.3248 15.9221 24.9219 16.325 24.4248 16.325C23.9278 16.325 23.5248 15.9221 23.5248 15.425V11.7478L19.2109 16.0614C18.8595 16.4128 18.2896 16.4128 17.9381 16.0614C17.5867 15.7098 17.5867 15.14 17.9382 14.7886L22.2521 10.475H18.5745C18.0776 10.475 17.6746 10.072 17.6746 9.57499Z" fill="#615DEF"/>
</g>
<defs>
<clipPath id="clip0_350_3809">
<rect width="18" height="18" fill="white" transform="translate(8 8)"/>
</clipPath>
</defs>
</svg>
