<svg width="20" height="20" viewBox="0 0 20 20" fill="none" xmlns="http://www.w3.org/2000/svg">
<g id="More Vertical / undefined / Glyph: undefined">
<path id="Vector" d="M10 6C8.8954 6 8 5.10457 8 4C8 2.89543 8.8954 2 10 2C11.1046 2 12 2.89543 12 4C12 5.10457 11.1046 6 10 6ZM10 12C8.8954 12 8 11.1046 8 10C8 8.8954 8.8954 8 10 8C11.1046 8 12 8.8954 12 10C12 11.1046 11.1046 12 10 12ZM8 16C8 17.1046 8.8954 18 10 18C11.1046 18 12 17.1046 12 16C12 14.8954 11.1046 14 10 14C8.8954 14 8 14.8954 8 16Z" fill="#615DEF"/>
</g>
</svg>
